<svg width="32" height="32" viewBox="0 0 32 32" xmlns="http://www.w3.org/2000/svg"><path d="M30.529 3.624c.628-.6.628-1.573 0-2.174-.63-.6-1.641-.6-2.26 0L15.827 13.588 3.73 1.45c-.628-.6-1.64-.6-2.259 0a1.488 1.488 0 0 0 0 2.174l12.096 12.138L1.471 28.376a1.488 1.488 0 0 0 0 2.173c.31.3.725.451 1.13.451.405 0 .82-.15 1.13-.45l12.095-12.615L28.27 30.549c.309.3.724.451 1.13.451.404 0 .82-.15 1.129-.45.628-.601.628-1.574 0-2.174L18.085 15.762 30.529 3.624z" fill="#202020" fill-rule="evenodd"/></svg>